# xmcd CD Database Entry
#
# Track frame offsets:
# 183
# 59013
# 98688
# 137958
# 194058
# 232838
# 270933
#
# Disc length: 3980 seconds
#
# Revision: 7
# Processed by: cddbd v1.4PL0 Copyright (c) Steve Scherf et al.
# Submitted via: tcd 2.0b
#
DISCID=600f8a07
DTITLE=Wolfgang Amadeus Mozart - 4 Hornkonzerte Fagottkonzert
DYEAR=1900
DGENRE=Classical
TTITLE0=Sinfonia concertante fur Oboe, Klarinette, Horn, Fagott und O
TTITLE0=rchester Es-dur- Allegro
TTITLE1=Adagio
TTITLE2=Andantino con variazioni
TTITLE3=Konzert fur Klarinette und Orchester A-dur - Allegro
TTITLE4=Adagio
TTITLE5=Rondo. Allegro
TTITLE6=Andante fur Flote und Orchester C-dur - Andante
EXTD=ID3G: 32
EXTT0=
EXTT1=
EXTT2=
EXTT3=
EXTT4=
EXTT5=
EXTT6=
PLAYORDER=
